<svg xmlns="http://www.w3.org/2000/svg" version="1.1" xmlns:xlink="http://www.w3.org/1999/xlink" xmlns:svgjs="http://svgjs.dev/svgjs" width="1000" height="1000" viewBox="0 0 1000 1000"><rect width="1000" height="1000" fill="#c8c8c8"></rect><g transform="matrix(0.7,0,0,0.7,149.57579046742433,434.1556848747816)"><svg viewBox="0 0 396 75" data-background-color="#c8c8c8" preserveAspectRatio="xMidYMid meet" height="189" width="1000" xmlns="http://www.w3.org/2000/svg" xmlns:xlink="http://www.w3.org/1999/xlink"><g id="tight-bounds" transform="matrix(1,0,0,1,0.23998146539895515,-0.17329074534103484)"><svg viewBox="0 0 395.52 75.34658149068208" height="75.34658149068208" width="395.52"><g><svg viewBox="0 0 395.52 75.34658149068208" height="75.34658149068208" width="395.52"><g><svg viewBox="0 0 395.52 75.34658149068208" height="75.34658149068208" width="395.52"><g id="textblocktransform"><svg viewBox="0 0 395.52 75.34658149068208" height="75.34658149068208" width="395.52" id="textblock"><g><svg viewBox="0 0 395.52 43.40050867052023" height="43.40050867052023" width="395.52"><g transform="matrix(1,0,0,1,0,0)"><svg width="395.52" viewBox="-2.3499999046325684 -55.400001525878906 518.949951171875 56.95000076293945" height="43.40050867052023" data-palette-color="#6b7280"><path d="M59.1-9Q59.9-8.55 59.9-6.95L59.9-6.95Q59.9-5 58.93-3.03 57.95-1.05 56.18 0.25 54.4 1.55 52.05 1.55L52.05 1.55Q48.15 1.55 46.1-2.05 44.05-5.65 44.05-11.25L44.05-11.25Q44.05-14.6 44.75-18.45 45.45-22.3 46.45-25.65L46.45-25.65Q44.45-22.75 41.98-18.78 39.5-14.8 33.45-4.75L33.45-4.75Q32.35-2.9 32.35-2.1L32.35-2.1Q32.35-1.85 32.43-1.63 32.5-1.4 32.5-1.25L32.5-1.25Q32.5-1 32.1-0.9L32.1-0.9Q30.6-0.4 30.13-0.15 29.65 0.1 29.55 0.1L29.55 0.1Q29.25 0.1 29-0.4L29-0.4Q29.25-0.55 29.38-0.9 29.5-1.25 29.5-2.2L29.5-2.2Q29.5-4.65 28.55-11.58 27.6-18.5 26.6-24.5L26.6-24.5Q23.4-16.45 20.63-11.13 17.85-5.8 14.23-2.35 10.6 1.1 6.05 1.1L6.05 1.1Q3.4 1.1 1.5-0.05-0.4-1.2-1.38-3.18-2.35-5.15-2.35-7.5L-2.35-7.5Q-2.35-9.6-1.65-11.28-0.95-12.95 0.1-13.9 1.15-14.85 2.15-14.85L2.15-14.85Q2.65-14.85 2.95-14.6L2.95-14.6Q0.4-11.9 0.4-8.2L0.4-8.2Q0.4-5.15 1.98-3.45 3.55-1.75 6.5-1.75L6.5-1.75Q10.35-1.75 13.4-4.75 16.45-7.75 19.13-13.1 21.8-18.45 25.85-28.3L25.85-28.3Q25.8-28.65 25.75-29.05 25.7-29.45 25.6-29.85L25.6-29.85Q25.5-30.4 25.28-32.02 25.05-33.65 25.05-34.45L25.05-34.45Q25.05-35.4 25.55-35.83 26.05-36.25 26.75-36.25L26.75-36.25Q27.55-36.25 28.33-35.77 29.1-35.3 29.1-34.05L29.1-34.05Q29.1-33.75 28.8-31.45L28.8-31.45Q28.4-28.55 28.35-27.65L28.35-27.65Q28.75-25.15 30.05-16.15L30.05-16.15 31.5-6.15Q42.5-24.8 47.5-32.3L47.5-32.3Q49.65-35.5 50.83-36.77 52-38.05 52.95-38.05L52.95-38.05Q53.8-38.05 54.5-37.23 55.2-36.4 55.45-35.5L55.45-35.5Q54.1-35.5 52.8-34.33 51.5-33.15 50.4-31L50.4-31Q48.55-27.4 47.65-22.25 46.75-17.1 46.75-12.55L46.75-12.55Q46.75-7.1 48.15-4 49.55-0.9 52.45-0.9L52.45-0.9Q54.95-0.9 56.68-3.1 58.4-5.3 59.1-9L59.1-9ZM90.75-11.55Q91.4-11.55 91.4-10.25L91.4-10.25Q91.4-7.95 89.37-5.4 87.35-2.85 84.47-1.13 81.6 0.6 79.2 0.6L79.2 0.6Q77.25 0.6 76.2-0.6 75.15-1.8 74.95-3.7L74.95-3.7Q73.7-1.9 71.8-0.75 69.9 0.4 68.4 0.4L68.4 0.4Q67.1 0.4 65.82-0.48 64.55-1.35 63.75-2.63 62.95-3.9 62.9-5.05L62.9-5.05 65.35-15.15Q65.65-16.35 66.87-17.73 68.1-19.1 69.85-20 71.6-20.9 73.4-20.9L73.4-20.9Q75.7-20.9 77.45-19.35L77.45-19.35Q77.9-20.55 78.12-20.85 78.35-21.15 78.8-21.2L78.8-21.2 81.25-21.45 81.4-21.35Q80.4-20.55 79.95-18.85L79.95-18.85Q78.4-13.05 77.82-10.3 77.25-7.55 77.25-5.45L77.25-5.45Q77.25-3.35 77.8-2.38 78.35-1.4 79.65-1.4L79.65-1.4Q81.25-1.4 83.47-2.7 85.7-4 87.7-6.33 89.7-8.65 90.75-11.55L90.75-11.55ZM68.6-1.95Q69.45-1.95 70.67-2.55 71.9-3.15 72.97-4.28 74.05-5.4 74.45-6.85L74.45-6.85 75.4-10.95Q75.6-11.95 76.1-14.18 76.6-16.4 76.9-17.6L76.9-17.6Q75.5-19 73.5-19L73.5-19Q71.95-19 70.7-18.18 69.45-17.35 68.65-16.18 67.85-15 67.65-14.1L67.65-14.1 65.65-5.2Q65.75-3.95 66.65-2.95 67.55-1.95 68.6-1.95L68.6-1.95ZM111.15-17.85Q111.34-17.8 111.5-17.55 111.65-17.3 111.65-17L111.65-17Q111.65-15.95 110.67-14.98 109.7-14 108.12-13.4 106.55-12.8 104.95-12.8L104.95-12.8Q102.45-12.8 100.67-14.1 98.9-15.4 98.4-17.75L98.4-17.75Q96.15-17.5 94.27-14.9 92.4-12.3 91.65-9.25L91.65-9.25Q91.55-8.75 90.9-6.18 90.25-3.6 89.65-0.1L89.65-0.1Q89.59 0.05 89.52 0.13 89.45 0.2 89.2 0.2L89.2 0.2Q88.84 0.2 88.15-0.1 87.45-0.4 87.45-0.75L87.45-0.75Q87.45-1.45 87.7-2.6L87.7-2.6Q90.75-16.7 91.65-20.05L91.65-20.05Q91.75-20.5 91.87-20.65 92-20.8 92.3-20.8L92.3-20.8Q92.5-20.8 93.15-20.48 93.8-20.15 94.2-19.8L94.2-19.8 93.3-16.9 93-15.9Q94.15-17.7 95.65-18.8 97.15-19.9 98.84-19.9L98.84-19.9Q99.34-19.9 99.84-19.8 100.34-19.7 100.55-19.55L100.55-19.55Q100.55-17.1 101.82-15.93 103.09-14.75 105.4-14.75L105.4-14.75Q107.45-14.75 108.8-15.45 110.15-16.15 111.15-17.85L111.15-17.85ZM128.19-14Q128.69-14 128.99-13.53 129.29-13.05 129.29-12.35L129.29-12.35Q129.29-11.45 128.79-10.45L128.79-10.45Q127.39-7.5 124.79-5.03 122.19-2.55 119.17-1.1 116.14 0.35 113.54 0.35L113.54 0.35Q108.24 0.35 108.24-5.8L108.24-5.8Q108.24-10.1 110.59-19.63 112.94-29.15 117.39-44.9L117.39-44.9Q118.34-48.15 119.47-49.7 120.59-51.25 122.04-51.25L122.04-51.25Q123.09-51.25 124.07-50.53 125.04-49.8 125.69-48.3 126.34-46.8 126.34-44.6L126.34-44.6Q126.34-41.05 124.67-35.6 122.99-30.15 119.64-24.1 116.29-18.05 111.59-12.9L111.59-12.9Q110.74-8.5 110.74-6.35L110.74-6.35Q110.74-3.95 111.72-2.93 112.69-1.9 114.44-1.9L114.44-1.9Q116.89-1.9 119.67-3.55 122.44-5.2 124.74-8 127.04-10.8 128.19-14L128.19-14ZM118.69-41.75Q114.49-26.65 112.34-16.7L112.34-16.7Q116.04-21.35 118.72-26.85 121.39-32.35 122.72-37.15 124.04-41.95 124.04-44.7L124.04-44.7Q124.04-46.25 123.59-47.38 123.14-48.5 122.09-48.5L122.09-48.5Q121.49-48.5 120.67-47.25 119.84-46 118.69-41.75L118.69-41.75ZM147.09-11.95Q147.99-11.8 147.99-10.95L147.99-10.95Q147.99-8.95 145.42-6.28 142.84-3.6 139.34-1.68 135.84 0.25 133.49 0.25L133.49 0.25Q131.24 0.25 129.59-0.93 127.94-2.1 127.07-3.55 126.19-5 126.19-5.7L126.19-5.7Q126.99-8.55 127.94-13.6L127.94-13.6 128.49-16.4Q128.69-17.4 129.94-18.48 131.19-19.55 132.74-20.28 134.29-21 135.24-21L135.24-21Q135.99-21 137.06-20.53 138.14-20.05 138.97-19.05 139.79-18.05 139.79-16.5L139.79-16.5Q139.79-14.7 138.59-13.1 137.39-11.5 135.04-10.5 132.69-9.5 129.39-9.5L129.39-9.5 128.69-6.15Q128.69-5.7 129.22-4.65 129.74-3.6 130.92-2.75 132.09-1.9 133.89-1.9L133.89-1.9Q136.29-1.9 138.94-3.48 141.59-5.05 143.79-7.4 145.99-9.75 147.09-11.95L147.09-11.95ZM134.84-18.95Q134.24-18.95 133.29-18.45 132.34-17.95 131.56-17.2 130.79-16.45 130.64-15.8L130.64-15.8Q130.14-13.55 129.74-11.25L129.74-11.25Q133.59-11.4 135.54-12.78 137.49-14.15 137.49-15.9L137.49-15.9Q137.49-17.15 136.59-18.05 135.69-18.95 134.84-18.95L134.84-18.95ZM169.19-12.2Q169.69-12.2 169.91-11.78 170.14-11.35 170.14-10.8L170.14-10.8Q170.14-9 168.24-6.25 166.34-3.5 163.41-1.45 160.49 0.6 157.64 0.6L157.64 0.6Q155.84 0.6 154.86-0.3 153.89-1.2 153.89-3.05L153.89-3.05Q153.89-5.6 155.29-9.98 156.69-14.35 157.84-17.25L157.84-17.25Q157.64-17.55 157.44-17.55L157.44-17.55Q157.24-17.55 156.99-17.4L156.99-17.4Q156.09-16.85 154.04-14.95 151.99-13.05 150.04-10.95 148.09-8.85 147.39-7.55L147.39-7.55Q146.59-5.4 146.39-4.83 146.19-4.25 145.99-2.95L145.99-2.95 145.54-0.7Q145.49-0.55 145.44-0.33 145.39-0.1 145.31-0.05 145.24 0 145.09 0L145.09 0Q144.64 0 143.91-0.1 143.19-0.2 143.19-0.4L143.19-0.4Q143.19-1 143.54-2.35 143.89-3.7 144.24-4.8 144.59-5.9 144.79-6.5L144.79-6.5 145.24-7.9Q146.69-12.9 147.21-15.18 147.74-17.45 148.24-20.25L148.24-20.25Q148.29-20.75 148.94-20.75L148.94-20.75Q149.39-20.75 149.96-20.53 150.54-20.3 150.64-19.9L150.64-19.9Q150.44-19 149.91-16.85 149.39-14.7 148.64-12.1L148.64-12.1Q151.54-15.35 154.66-18 157.79-20.65 158.84-20.65L158.84-20.65Q159.34-20.65 160.04-20.15 160.74-19.65 160.89-19.2L160.89-19.2Q159.29-14.9 157.84-9.83 156.39-4.75 156.39-3.15L156.39-3.15Q156.39-1.4 158.39-1.4L158.39-1.4Q161.34-1.4 164.36-4.7 167.39-8 169.19-12.2L169.19-12.2ZM195.44-11.55Q196.09-11.55 196.09-10.25L196.09-10.25Q196.09-7.95 194.06-5.4 192.03-2.85 189.16-1.13 186.28 0.6 183.88 0.6L183.88 0.6Q181.94 0.6 180.88-0.6 179.84-1.8 179.63-3.7L179.63-3.7Q178.38-1.9 176.49-0.75 174.59 0.4 173.09 0.4L173.09 0.4Q171.78 0.4 170.51-0.48 169.24-1.35 168.44-2.63 167.63-3.9 167.59-5.05L167.59-5.05 170.03-15.15Q170.34-16.35 171.56-17.73 172.78-19.1 174.53-20 176.28-20.9 178.09-20.9L178.09-20.9Q180.38-20.9 182.13-19.35L182.13-19.35Q182.59-20.55 182.81-20.85 183.03-21.15 183.49-21.2L183.49-21.2 185.94-21.45 186.09-21.35Q185.09-20.55 184.63-18.85L184.63-18.85Q183.09-13.05 182.51-10.3 181.94-7.55 181.94-5.45L181.94-5.45Q181.94-3.35 182.49-2.38 183.03-1.4 184.34-1.4L184.34-1.4Q185.94-1.4 188.16-2.7 190.38-4 192.38-6.33 194.38-8.65 195.44-11.55L195.44-11.55ZM173.28-1.95Q174.13-1.95 175.36-2.55 176.59-3.15 177.66-4.28 178.74-5.4 179.13-6.85L179.13-6.85 180.09-10.95Q180.28-11.95 180.78-14.18 181.28-16.4 181.59-17.6L181.59-17.6Q180.19-19 178.19-19L178.19-19Q176.63-19 175.38-18.18 174.13-17.35 173.34-16.18 172.53-15 172.34-14.1L172.34-14.1 170.34-5.2Q170.44-3.95 171.34-2.95 172.24-1.95 173.28-1.95L173.28-1.95ZM236.53-2.05Q238.63-2.05 240.36-2.6 242.08-3.15 243.28-3.95L243.28-3.95Q243.38-3.75 243.38-3.3L243.38-3.3Q243.38-1.75 240.93-0.73 238.48 0.3 235.58 0.3L235.58 0.3Q232.83 0.3 231.51-0.88 230.18-2.05 230.18-4.75L230.18-4.75Q230.18-8.15 231.93-16.9L231.93-16.9Q228.53-17 223.48-17L223.48-17 214.48-16.95Q212.43-9.65 211.88-7.43 211.33-5.2 210.58-1.2L210.58-1.2Q210.48-0.65 210.33-0.53 210.18-0.4 209.68-0.35L209.68-0.35Q209.03-0.3 208.61-0.18 208.18-0.05 207.43 0.35L207.43 0.35 207.13 0.25Q208.08-2.2 208.71-4.33 209.33-6.45 210.88-12.15L210.88-12.15 212.23-16.95 211.98-16.95Q211.48-16.95 210.93-17.57 210.38-18.2 210.38-18.9L210.38-18.9Q210.38-19.15 210.53-19.23 210.68-19.3 211.18-19.3L211.18-19.3 212.88-19.25 213.38-21Q214.78-26.05 215.28-28.18 215.78-30.3 215.78-31.45L215.78-31.45Q215.78-32.45 215.33-32.77 214.88-33.1 213.88-33.1L213.88-33.1Q212.98-33.1 211.53-32.98 210.08-32.85 209.23-32.7L209.23-32.7Q209.03-33.1 208.86-33.48 208.68-33.85 208.68-34.2L208.68-34.2Q208.68-34.8 209.28-34.8L209.28-34.8Q215.38-35.05 216.88-35.18 218.38-35.3 218.68-35.3L218.68-35.3Q219.13-35.3 219.33-35.2 219.53-35.1 219.53-34.8L219.53-34.8Q219.53-34.7 219.43-34.3L219.43-34.3 215.08-19.15Q218.23-19 224.13-19L224.13-19Q227.83-19 232.43-19.1L232.43-19.1Q234.13-27.35 236.63-35.3L236.63-35.3Q236.93-36.3 237.53-36.75L237.53-36.75Q238.53-37.45 241.16-38.4 243.78-39.35 245.13-39.35L245.13-39.35Q246.53-39.35 246.53-38L246.53-38Q245.28-38 242.78-37.02 240.28-36.05 239.53-35.1L239.53-35.1Q238.68-34.05 237.33-29.35 235.98-24.65 234.83-19.45L234.83-19.45Q232.78-10.05 232.78-5.3L232.78-5.3Q232.78-4.15 233.03-3.48 233.28-2.8 234.08-2.43 234.88-2.05 236.53-2.05L236.53-2.05ZM274.13-17.65Q274.63-17.5 274.63-16.65L274.63-16.65Q274.63-15.4 273.63-14.08 272.63-12.75 270.9-11.9 269.18-11.05 267.13-11.05L267.13-11.05Q264.38-11.05 262.28-12.55L262.28-12.55Q261.98-11.1 261.53-9.6L261.53-9.6Q261.38-9.05 260.88-7.08 260.38-5.1 260.18-3.55L260.18-3.55Q259.83-2.75 258.78-1.83 257.73-0.9 256.28-0.25 254.83 0.4 253.43 0.4L253.43 0.4Q251.88 0.4 250.43-0.4 248.98-1.2 248.05-2.55 247.13-3.9 247.13-5.55L247.13-5.55Q247.83-7.65 248.28-9.5 248.73-11.35 249.13-13.25L249.13-13.25 249.63-15.75Q249.88-16.9 250.98-18.03 252.08-19.15 253.65-19.88 255.23-20.6 256.83-20.6L256.83-20.6Q257.43-20.6 258.53-20.4L258.53-20.4Q258.68-21.55 259.05-22 259.43-22.45 260.28-22.45L260.28-22.45Q260.78-22.45 261.43-22.3L261.43-22.3Q261.18-20.9 261.18-19.9L261.18-19.9Q261.18-17 262.93-15 264.68-13 267.68-13L267.68-13Q269.93-13 271.55-14.2 273.18-15.4 274.13-17.65L274.13-17.65ZM257.98-4.4Q258.38-6.4 259.13-8.95L259.13-8.95Q260.13-12.3 260.43-14.35L260.43-14.35Q259.33-15.75 258.93-17.75L258.93-17.75Q258.93-17.95 258.85-18.07 258.78-18.2 258.53-18.25L258.53-18.25Q257.78-18.55 256.83-18.55L256.83-18.55Q254.98-18.55 253.63-17.55 252.28-16.55 251.93-15.15L251.93-15.15Q251.78-14.55 250.83-10.45L250.83-10.45Q250.38-8.05 249.73-5.7L249.73-5.7Q249.73-3.85 250.98-2.83 252.23-1.8 253.63-1.8L253.63-1.8Q254.83-1.8 256.2-2.65 257.58-3.5 257.98-4.4L257.98-4.4ZM297.63-17.65Q298.13-17.5 298.13-16.65L298.13-16.65Q298.13-15.4 297.13-14.08 296.13-12.75 294.4-11.9 292.68-11.05 290.63-11.05L290.63-11.05Q287.88-11.05 285.77-12.55L285.77-12.55Q285.47-11.1 285.02-9.6L285.02-9.6Q284.88-9.05 284.38-7.08 283.88-5.1 283.68-3.55L283.68-3.55Q283.32-2.75 282.27-1.83 281.22-0.9 279.77-0.25 278.32 0.4 276.93 0.4L276.93 0.4Q275.38 0.4 273.93-0.4 272.47-1.2 271.55-2.55 270.63-3.9 270.63-5.55L270.63-5.55Q271.32-7.65 271.77-9.5 272.22-11.35 272.63-13.25L272.63-13.25 273.13-15.75Q273.38-16.9 274.47-18.03 275.57-19.15 277.15-19.88 278.72-20.6 280.32-20.6L280.32-20.6Q280.93-20.6 282.02-20.4L282.02-20.4Q282.18-21.55 282.55-22 282.93-22.45 283.77-22.45L283.77-22.45Q284.27-22.45 284.93-22.3L284.93-22.3Q284.68-20.9 284.68-19.9L284.68-19.9Q284.68-17 286.43-15 288.18-13 291.18-13L291.18-13Q293.43-13 295.05-14.2 296.68-15.4 297.63-17.65L297.63-17.65ZM281.47-4.4Q281.88-6.4 282.63-8.95L282.63-8.95Q283.63-12.3 283.93-14.35L283.93-14.35Q282.82-15.75 282.43-17.75L282.43-17.75Q282.43-17.95 282.35-18.07 282.27-18.2 282.02-18.25L282.02-18.25Q281.27-18.55 280.32-18.55L280.32-18.55Q278.47-18.55 277.13-17.55 275.77-16.55 275.43-15.15L275.43-15.15Q275.27-14.55 274.32-10.45L274.32-10.45Q273.88-8.05 273.22-5.7L273.22-5.7Q273.22-3.85 274.47-2.83 275.72-1.8 277.13-1.8L277.13-1.8Q278.32-1.8 279.7-2.65 281.07-3.5 281.47-4.4L281.47-4.4ZM322.57-55.4Q326.47-55.4 329.17-53.03 331.87-50.65 331.87-45.85L331.87-45.85Q331.87-45.6 331.67-45.4L331.67-45.4Q330.17-48.9 327.7-50.4 325.22-51.9 321.77-51.9L321.77-51.9Q318.37-51.9 314.85-48.85 311.32-45.8 307.97-40.13 304.62-34.45 301.72-26.7L301.72-26.7Q300.27-22.85 299.17-18.28 298.07-13.7 296.42-6L296.42-6 295.97-3.95Q299.57-8.85 304.92-15.1 310.27-21.35 311.07-21.35L311.07-21.35Q312.72-21.35 313.72-20.35L313.72-20.35Q310.27-17.75 305.27-12.15L305.27-12.15Q306.12-8.85 306.95-6.7 307.77-4.55 309.12-3.03 310.47-1.5 312.47-1.5L312.47-1.5Q313.77-1.5 315.85-3.3 317.92-5.1 319.72-8 321.52-10.9 322.12-14.05L322.12-14.05Q322.57-14.05 322.87-13.48 323.17-12.9 323.17-11.95L323.17-11.95Q323.17-10.3 321.32-7.23 319.47-4.15 316.85-1.78 314.22 0.6 311.82 0.6L311.82 0.6Q308.77 0.6 306.95-1.98 305.12-4.55 303.32-9.9L303.32-9.9Q298.82-4.65 295.92-0.3L295.92-0.3Q295.27 0.7 295.02 0.7L295.02 0.7Q294.62 0.7 293.95 0.08 293.27-0.55 293.22-1L293.22-1Q293.17-2 294.22-7.03 295.27-12.05 296.8-17.9 298.32-23.75 299.57-27.3L299.57-27.3Q304.37-40.8 310.05-48.1 315.72-55.4 322.57-55.4L322.57-55.4ZM340.92-11.95Q341.82-11.8 341.82-10.95L341.82-10.95Q341.82-8.95 339.25-6.28 336.67-3.6 333.17-1.68 329.67 0.25 327.32 0.25L327.32 0.25Q325.07 0.25 323.42-0.93 321.77-2.1 320.89-3.55 320.02-5 320.02-5.7L320.02-5.7Q320.82-8.55 321.77-13.6L321.77-13.6 322.32-16.4Q322.52-17.4 323.77-18.48 325.02-19.55 326.57-20.28 328.12-21 329.07-21L329.07-21Q329.82-21 330.89-20.53 331.97-20.05 332.8-19.05 333.62-18.05 333.62-16.5L333.62-16.5Q333.62-14.7 332.42-13.1 331.22-11.5 328.87-10.5 326.52-9.5 323.22-9.5L323.22-9.5 322.52-6.15Q322.52-5.7 323.05-4.65 323.57-3.6 324.75-2.75 325.92-1.9 327.72-1.9L327.72-1.9Q330.12-1.9 332.77-3.48 335.42-5.05 337.62-7.4 339.82-9.75 340.92-11.95L340.92-11.95ZM328.67-18.95Q328.07-18.95 327.12-18.45 326.17-17.95 325.39-17.2 324.62-16.45 324.47-15.8L324.47-15.8Q323.97-13.55 323.57-11.25L323.57-11.25Q327.42-11.4 329.37-12.78 331.32-14.15 331.32-15.9L331.32-15.9Q331.32-17.15 330.42-18.05 329.52-18.95 328.67-18.95L328.67-18.95ZM361.42-17.85Q361.62-17.8 361.77-17.55 361.92-17.3 361.92-17L361.92-17Q361.92-15.95 360.94-14.98 359.97-14 358.39-13.4 356.82-12.8 355.22-12.8L355.22-12.8Q352.72-12.8 350.94-14.1 349.17-15.4 348.67-17.75L348.67-17.75Q346.42-17.5 344.54-14.9 342.67-12.3 341.92-9.25L341.92-9.25Q341.82-8.75 341.17-6.18 340.52-3.6 339.92-0.1L339.92-0.1Q339.87 0.05 339.79 0.13 339.72 0.2 339.47 0.2L339.47 0.2Q339.12 0.2 338.42-0.1 337.72-0.4 337.72-0.75L337.72-0.75Q337.72-1.45 337.97-2.6L337.97-2.6Q341.02-16.7 341.92-20.05L341.92-20.05Q342.02-20.5 342.14-20.65 342.27-20.8 342.57-20.8L342.57-20.8Q342.77-20.8 343.42-20.48 344.07-20.15 344.47-19.8L344.47-19.8 343.57-16.9 343.27-15.9Q344.42-17.7 345.92-18.8 347.42-19.9 349.12-19.9L349.12-19.9Q349.62-19.9 350.12-19.8 350.62-19.7 350.82-19.55L350.82-19.55Q350.82-17.1 352.09-15.93 353.37-14.75 355.67-14.75L355.67-14.75Q357.72-14.75 359.07-15.45 360.42-16.15 361.42-17.85L361.42-17.85ZM425.76-9Q426.56-8.55 426.56-6.95L426.56-6.95Q426.56-5 425.59-3.03 424.61-1.05 422.84 0.25 421.06 1.55 418.71 1.55L418.71 1.55Q414.81 1.55 412.76-2.05 410.71-5.65 410.71-11.25L410.71-11.25Q410.71-14.6 411.41-18.45 412.11-22.3 413.11-25.65L413.11-25.65Q411.11-22.75 408.64-18.78 406.16-14.8 400.11-4.75L400.11-4.75Q399.01-2.9 399.01-2.1L399.01-2.1Q399.01-1.85 399.09-1.63 399.16-1.4 399.16-1.25L399.16-1.25Q399.16-1 398.76-0.9L398.76-0.9Q397.26-0.4 396.79-0.15 396.31 0.1 396.21 0.1L396.21 0.1Q395.91 0.1 395.66-0.4L395.66-0.4Q395.91-0.55 396.04-0.9 396.16-1.25 396.16-2.2L396.16-2.2Q396.16-4.65 395.21-11.58 394.26-18.5 393.26-24.5L393.26-24.5Q390.06-16.45 387.29-11.13 384.51-5.8 380.89-2.35 377.26 1.1 372.71 1.1L372.71 1.1Q370.06 1.1 368.16-0.05 366.26-1.2 365.29-3.18 364.31-5.15 364.31-7.5L364.31-7.5Q364.31-9.6 365.01-11.28 365.71-12.95 366.76-13.9 367.81-14.85 368.81-14.85L368.81-14.85Q369.31-14.85 369.61-14.6L369.61-14.6Q367.06-11.9 367.06-8.2L367.06-8.2Q367.06-5.15 368.64-3.45 370.21-1.75 373.16-1.75L373.16-1.75Q377.01-1.75 380.06-4.75 383.11-7.75 385.79-13.1 388.46-18.45 392.51-28.3L392.51-28.3Q392.46-28.65 392.41-29.05 392.36-29.45 392.26-29.85L392.26-29.85Q392.16-30.4 391.94-32.02 391.71-33.65 391.71-34.45L391.71-34.45Q391.71-35.4 392.21-35.83 392.71-36.25 393.41-36.25L393.41-36.25Q394.21-36.25 394.99-35.77 395.76-35.3 395.76-34.05L395.76-34.05Q395.76-33.75 395.46-31.45L395.46-31.45Q395.06-28.55 395.01-27.65L395.01-27.65Q395.41-25.15 396.71-16.15L396.71-16.15 398.16-6.15Q409.16-24.8 414.16-32.3L414.16-32.3Q416.31-35.5 417.49-36.77 418.66-38.05 419.61-38.05L419.61-38.05Q420.46-38.05 421.16-37.23 421.86-36.4 422.11-35.5L422.11-35.5Q420.76-35.5 419.46-34.33 418.16-33.15 417.06-31L417.06-31Q415.21-27.4 414.31-22.25 413.41-17.1 413.41-12.55L413.41-12.55Q413.41-7.1 414.81-4 416.21-0.9 419.11-0.9L419.11-0.9Q421.61-0.9 423.34-3.1 425.06-5.3 425.76-9L425.76-9ZM456.21-17.65Q456.71-17.5 456.71-16.65L456.71-16.65Q456.71-15.4 455.71-14.08 454.71-12.75 452.98-11.9 451.26-11.05 449.21-11.05L449.21-11.05Q446.46-11.05 444.36-12.55L444.36-12.55Q444.06-11.1 443.61-9.6L443.61-9.6Q443.46-9.05 442.96-7.08 442.46-5.1 442.26-3.55L442.26-3.55Q441.91-2.75 440.86-1.83 439.81-0.9 438.36-0.25 436.91 0.4 435.51 0.4L435.51 0.4Q433.96 0.4 432.51-0.4 431.06-1.2 430.13-2.55 429.21-3.9 429.21-5.55L429.21-5.55Q429.91-7.65 430.36-9.5 430.81-11.35 431.21-13.25L431.21-13.25 431.71-15.75Q431.96-16.9 433.06-18.03 434.16-19.15 435.73-19.88 437.31-20.6 438.91-20.6L438.91-20.6Q439.51-20.6 440.61-20.4L440.61-20.4Q440.76-21.55 441.13-22 441.51-22.45 442.36-22.45L442.36-22.45Q442.86-22.45 443.51-22.3L443.51-22.3Q443.26-20.9 443.26-19.9L443.26-19.9Q443.26-17 445.01-15 446.76-13 449.76-13L449.76-13Q452.01-13 453.63-14.2 455.26-15.4 456.21-17.65L456.21-17.65ZM440.06-4.4Q440.46-6.4 441.21-8.95L441.21-8.95Q442.21-12.3 442.51-14.35L442.51-14.35Q441.41-15.75 441.01-17.75L441.01-17.75Q441.01-17.95 440.93-18.07 440.86-18.2 440.61-18.25L440.61-18.25Q439.86-18.55 438.91-18.55L438.91-18.55Q437.06-18.55 435.71-17.55 434.36-16.55 434.01-15.15L434.01-15.15Q433.86-14.55 432.91-10.45L432.91-10.45Q432.46-8.05 431.81-5.7L431.81-5.7Q431.81-3.85 433.06-2.83 434.31-1.8 435.71-1.8L435.71-1.8Q436.91-1.8 438.28-2.65 439.66-3.5 440.06-4.4L440.06-4.4ZM479.71-17.65Q480.21-17.5 480.21-16.65L480.21-16.65Q480.21-15.4 479.21-14.08 478.21-12.75 476.48-11.9 474.76-11.05 472.71-11.05L472.71-11.05Q469.96-11.05 467.86-12.55L467.86-12.55Q467.56-11.1 467.11-9.6L467.11-9.6Q466.96-9.05 466.46-7.08 465.96-5.1 465.76-3.55L465.76-3.55Q465.41-2.75 464.36-1.83 463.31-0.9 461.86-0.25 460.41 0.4 459.01 0.4L459.01 0.4Q457.46 0.4 456.01-0.4 454.56-1.2 453.63-2.55 452.71-3.9 452.71-5.55L452.71-5.55Q453.41-7.65 453.86-9.5 454.31-11.35 454.71-13.25L454.71-13.25 455.21-15.75Q455.46-16.9 456.56-18.03 457.66-19.15 459.23-19.88 460.81-20.6 462.41-20.6L462.41-20.6Q463.01-20.6 464.11-20.4L464.11-20.4Q464.26-21.55 464.63-22 465.01-22.45 465.86-22.45L465.86-22.45Q466.36-22.45 467.01-22.3L467.01-22.3Q466.76-20.9 466.76-19.9L466.76-19.9Q466.76-17 468.51-15 470.26-13 473.26-13L473.26-13Q475.51-13 477.13-14.2 478.76-15.4 479.71-17.65L479.71-17.65ZM463.56-4.4Q463.96-6.4 464.71-8.95L464.71-8.95Q465.71-12.3 466.01-14.35L466.01-14.35Q464.91-15.75 464.51-17.75L464.51-17.75Q464.51-17.95 464.43-18.07 464.36-18.2 464.11-18.25L464.11-18.25Q463.36-18.55 462.41-18.55L462.41-18.55Q460.56-18.55 459.21-17.55 457.86-16.55 457.51-15.15L457.51-15.15Q457.36-14.55 456.41-10.45L456.41-10.45Q455.96-8.05 455.31-5.7L455.31-5.7Q455.31-3.85 456.56-2.83 457.81-1.8 459.21-1.8L459.21-1.8Q460.41-1.8 461.78-2.65 463.16-3.5 463.56-4.4L463.56-4.4ZM498.8-17.85Q499-17.8 499.15-17.55 499.3-17.3 499.3-17L499.3-17Q499.3-15.95 498.33-14.98 497.35-14 495.78-13.4 494.2-12.8 492.6-12.8L492.6-12.8Q490.1-12.8 488.33-14.1 486.55-15.4 486.05-17.75L486.05-17.75Q483.8-17.5 481.93-14.9 480.05-12.3 479.3-9.25L479.3-9.25Q479.2-8.75 478.55-6.18 477.9-3.6 477.3-0.1L477.3-0.1Q477.25 0.05 477.18 0.13 477.1 0.2 476.85 0.2L476.85 0.2Q476.5 0.2 475.8-0.1 475.1-0.4 475.1-0.75L475.1-0.75Q475.1-1.45 475.35-2.6L475.35-2.6Q478.4-16.7 479.3-20.05L479.3-20.05Q479.4-20.5 479.53-20.65 479.65-20.8 479.95-20.8L479.95-20.8Q480.15-20.8 480.8-20.48 481.45-20.15 481.85-19.8L481.85-19.8 480.95-16.9 480.65-15.9Q481.8-17.7 483.3-18.8 484.8-19.9 486.5-19.9L486.5-19.9Q487-19.9 487.5-19.8 488-19.7 488.2-19.55L488.2-19.55Q488.2-17.1 489.48-15.93 490.75-14.75 493.05-14.75L493.05-14.75Q495.1-14.75 496.45-15.45 497.8-16.15 498.8-17.85L498.8-17.85ZM515.7-11.95Q516.6-11.8 516.6-10.95L516.6-10.95Q516.6-8.95 514.03-6.28 511.45-3.6 507.95-1.68 504.45 0.25 502.1 0.25L502.1 0.25Q499.85 0.25 498.2-0.93 496.55-2.1 495.68-3.55 494.8-5 494.8-5.7L494.8-5.7Q495.6-8.55 496.55-13.6L496.55-13.6 497.1-16.4Q497.3-17.4 498.55-18.48 499.8-19.55 501.35-20.28 502.9-21 503.85-21L503.85-21Q504.6-21 505.68-20.53 506.75-20.05 507.58-19.05 508.4-18.05 508.4-16.5L508.4-16.5Q508.4-14.7 507.2-13.1 506-11.5 503.65-10.5 501.3-9.5 498-9.5L498-9.5 497.3-6.15Q497.3-5.7 497.83-4.65 498.35-3.6 499.53-2.75 500.7-1.9 502.5-1.9L502.5-1.9Q504.9-1.9 507.55-3.48 510.2-5.05 512.4-7.4 514.6-9.75 515.7-11.95L515.7-11.95ZM503.45-18.95Q502.85-18.95 501.9-18.45 500.95-17.95 500.18-17.2 499.4-16.45 499.25-15.8L499.25-15.8Q498.75-13.55 498.35-11.25L498.35-11.25Q502.2-11.4 504.15-12.78 506.1-14.15 506.1-15.9L506.1-15.9Q506.1-17.15 505.2-18.05 504.3-18.95 503.45-18.95L503.45-18.95Z" opacity="1" transform="matrix(1,0,0,1,0,0)" fill="#6b7280" class="wordmark-text-0" data-fill-palette-color="primary" id="text-0"></path></svg></g></svg></g><g transform="matrix(1,0,0,1,0,53.646327155421965)"><svg viewBox="0 0 395.52 21.700254335260116" height="21.700254335260116" width="395.52"><g transform="matrix(1,0,0,1,0,0)"><svg width="395.52" viewBox="0.49520549178123474 -36.45000076293945 846.6248168945312 46.45000076293945" height="21.700254335260116" data-palette-color="#97978d"><path d="M11.1-0.1L11.1-0.1Q8.2 0.25 5.55-0.93 2.9-2.1 1.6-4.95L1.6-4.95Q1.3-5.55 1.07-6.43 0.85-7.3 0.73-8.15 0.6-9 0.55-9.05L0.55-9.05Q0.35-10.05 0.88-10.93 1.4-11.8 2.43-12.03 3.45-12.25 4.33-11.73 5.2-11.2 5.45-10.15L5.45-10.15Q5.6-9.4 5.7-8.75 5.8-8.1 5.88-7.78 5.95-7.45 6.1-7.05L6.1-7.05Q6.65-5.95 7.8-5.4 8.95-4.85 10.5-5.05 12.05-5.25 13.28-6.1 14.5-6.95 14.9-8.05L14.9-8.05Q15.9-10.6 16.25-14.73 16.6-18.85 16.48-22.28 16.35-25.7 16.05-30.8L16.05-30.8Q13.8-30.75 11.7-30.6L11.7-30.6Q10.65-30.55 9.88-31.23 9.1-31.9 9.03-32.93 8.95-33.95 9.63-34.73 10.3-35.5 11.3-35.6L11.3-35.6Q14.6-35.8 18.2-35.85L18.2-35.85 18.5-35.85Q21.2-35.85 24.4-35.75L24.4-35.75Q25.4-35.7 26.13-34.95 26.85-34.2 26.8-33.18 26.75-32.15 26-31.43 25.25-30.7 24.2-30.75L24.2-30.75 21.05-30.85Q22.3-13.25 19.6-6.25L19.6-6.25Q18.55-3.65 16.2-2.05 13.85-0.45 11.1-0.1L11.1-0.1ZM65.84 0L65.84 0Q64.94-0.05 64.26-0.7 63.59-1.35 63.49-2.9L63.49-2.9Q61.19-0.9 58.74-0.3L58.74-0.3Q55.24 0.6 52.34-1.45L52.34-1.45Q49.54-3.45 47.94-8.05L47.94-8.05Q47.39-9.65 47.09-11.35L47.09-11.35Q46.79-13.1 46.81-15.08 46.84-17.05 46.89-18.28 46.94-19.5 47.14-21.63 47.34-23.75 47.39-24.3L47.39-24.3Q47.49-25.3 48.26-25.98 49.04-26.65 50.06-26.58 51.09-26.5 51.76-25.73 52.44-24.95 52.39-23.9L52.39-23.9Q52.34-23.15 52.11-21.05 51.89-18.95 51.86-17.93 51.84-16.9 51.81-15.23 51.79-13.55 52.01-12.23 52.24-10.9 52.64-9.65L52.64-9.65Q53.74-6.6 55.44-5.5L55.44-5.5Q56.14-5.05 57.74-5.05L57.74-5.05Q59.89-5.4 61.21-6.3 62.54-7.2 63.69-10.4L63.69-10.4Q63.79-17.05 63.54-23.9L63.54-23.9Q63.49-24.95 64.21-25.7 64.94-26.45 65.96-26.5 66.99-26.55 67.74-25.83 68.49-25.1 68.54-24.1L68.54-24.1Q68.94-12.3 68.49-2.35L68.49-2.35Q68.44-1.35 67.66-0.65 66.89 0.05 65.84 0L65.84 0ZM96.03 0L96.03 0Q95.03 0 94.28-0.68 93.53-1.35 93.53-2.5L93.53-2.5Q93.53-6.45 93.48-9.3L93.48-9.3Q93.38-17.8 93.38-24.05L93.38-24.05Q93.38-25.2 94.08-25.85 94.78-26.5 95.78-26.5L95.78-26.5Q96.83-26.5 97.6-25.83 98.38-25.15 98.38-23.95L98.38-23.95 98.38-22.4Q101.48-26.45 106.53-26.45L106.53-26.45Q110.88-26.45 113.2-23.4 115.53-20.35 115.53-15.2L115.53-15.2Q115.53-9.5 115.38-7.7L115.38-7.7 115.13-4.35 114.98-2.2Q114.88-1.2 114.18-0.6 113.48 0 112.53 0L112.53 0Q111.53 0 110.78-0.68 110.03-1.35 110.03-2.5L110.03-2.5Q110.03-3.3 110.38-8.05L110.38-8.05Q110.63-11.3 110.63-13.15L110.63-13.15Q110.63-17.4 109.43-19.43 108.23-21.45 105.73-21.45L105.73-21.45Q103.93-21.45 102-20.35 100.08-19.25 98.38-17.55L98.38-17.55 98.48-10.45 98.53-2.5Q98.53-1.35 97.78-0.68 97.03 0 96.03 0L96.03 0ZM139.76-2.4L139.76-2.4Q139.66-6.15 139.79-13.9 139.91-21.65 139.91-24.05L139.91-24.05Q139.91-25.1 140.64-25.83 141.36-26.55 142.41-26.55 143.46-26.55 144.19-25.83 144.91-25.1 144.91-24.05L144.91-24.05Q144.91-21.65 144.79-13.95 144.66-6.25 144.76-2.5L144.76-2.5Q144.76-1.45 144.06-0.7 143.36 0.05 142.31 0.05 141.26 0.05 140.51-0.65 139.76-1.35 139.76-2.4L139.76-2.4ZM144.41-35.2L144.41-35.2Q145.26-34.35 145.26-33.1 145.26-31.85 144.41-31 143.56-30.15 142.31-30.15 141.06-30.15 140.21-31 139.36-31.85 139.36-33.1 139.36-34.35 140.21-35.2 141.06-36.05 142.34-36.08 143.61-36.1 144.41-35.2L144.41-35.2ZM183.15-0.35L183.15-0.35Q176.55 1.25 172.6-3L172.6-3Q169.45-6.25 168.7-11.35L168.7-11.35Q168.15-15.35 169.65-18.95L169.65-18.95Q171.45-23.55 175.35-25.75L175.35-25.75Q176.15-26.2 177.35-26.4L177.35-26.4Q177.4-26.4 178.05-26.45L178.05-26.45Q178.3-26.5 178.45-26.55L178.45-26.55Q179.2-26.7 179.95-26.4L179.95-26.4Q180.15-26.4 180.9-26.38 181.65-26.35 181.9-26.33 182.15-26.3 182.78-26.23 183.4-26.15 183.8-26.05L183.8-26.05 184.75-25.7Q185.35-25.5 185.9-25.2 186.45-24.9 187.1-24.5L187.1-24.5Q190.35-22.3 191.6-18.32 192.85-14.35 192.25-11.9L192.25-11.9Q191.8-9.2 190.65-6.88 189.5-4.55 187.48-2.75 185.45-0.95 183.15-0.35L183.15-0.35ZM181.6-5.55L181.6-5.55Q183.75-5.85 185.28-7.78 186.8-9.7 187.28-11.85 187.75-14 186.93-16.57 186.1-19.15 184.3-20.3L184.3-20.3Q183.75-20.7 183.4-20.88 183.05-21.05 182.58-21.18 182.1-21.3 181.83-21.3 181.55-21.3 180.65-21.35 179.75-21.4 179.05-21.45L179.05-21.45Q178.9-21.45 178.7-21.5L178.7-21.5Q178.15-21.45 178.1-21.45L178.1-21.45 177.75-21.35Q175.55-20.15 174.38-17.53 173.2-14.9 173.7-12.1L173.7-12.1Q174.25-8.7 176.15-6.95L176.15-6.95Q178.2-5.05 181.6-5.55L181.6-5.55ZM218.74 0L218.74 0Q217.74 0 216.99-0.68 216.24-1.35 216.24-2.5L216.24-2.5 216.14-12.7Q216.09-16.15 216.09-21.3L216.09-21.3 216.09-24.25Q216.09-25.4 216.79-26.05 217.49-26.7 218.49-26.7L218.49-26.7Q219.54-26.7 220.31-26.03 221.09-25.35 221.09-24.15L221.09-24.15 221.09-22.65Q221.64-23.85 223.14-24.7L223.14-24.7Q225.19-25.95 227.64-25.95L227.64-25.95Q229.49-25.95 230.49-25.35 231.49-24.75 231.49-23.2L231.49-23.2Q231.49-22.2 230.89-21.53 230.29-20.85 229.14-20.85L229.14-20.85Q224.94-20.85 223.34-19.7L223.34-19.7Q222.44-19.1 221.76-18.25 221.09-17.4 221.09-16.6L221.09-16.6 221.19-10.35 221.24-2.5Q221.24-1.35 220.49-0.68 219.74 0 218.74 0L218.74 0ZM291.66-0.05L291.66-0.05Q290.21-0.45 289.91-1.95L289.91-1.95Q289.76-2.25 289.66-2.6L289.66-2.6Q286.51-16.95 281.96-32.8L281.96-32.8Q281.66-33.8 282.16-34.7 282.66-35.6 283.66-35.9 284.66-36.2 285.56-35.7 286.46-35.2 286.76-34.2L286.76-34.2Q289.96-22.9 292.66-10.5L292.66-10.5 296.56-22.3Q299.11-29.65 300.36-33.6L300.36-33.6Q300.41-34.4 300.89-35.02 301.36-35.65 302.16-35.9L302.16-35.9Q302.31-36 302.61-36 302.91-36 303.31-35.9L303.31-35.9Q304.11-35.65 304.59-35 305.06-34.35 305.06-33.55L305.06-33.55Q308.51-22.95 312.91-9.25L312.91-9.25 320.11-34.4Q320.41-35.4 321.34-35.9 322.26-36.4 323.24-36.1 324.21-35.8 324.71-34.88 325.21-33.95 324.91-33L324.91-33 315.51-1.75Q315.21-0.8 314.29-0.3 313.36 0.2 312.36-0.1L312.36-0.1Q311.46-0.4 310.96-1.2L310.96-1.2Q310.61-1.6 310.41-2.1L310.41-2.1Q305.96-15.4 302.51-26.2L302.51-26.2 300.66-19.5 298.46-13.25 296.66-7.8Q295.56-4.45 294.76-1.75L294.76-1.75Q294.46-0.75 293.56-0.25 292.66 0.25 291.66-0.05L291.66-0.05ZM357.15 0.25L357.15 0.25Q353.45 0 350.7-1.25 347.95-2.5 346.5-4.4 345.05-6.3 344.4-7.9 343.75-9.5 343.6-11.08 343.45-12.65 343.75-15.15L343.75-15.15Q344.1-17.25 345.23-19.3 346.35-21.35 348.23-22.98 350.1-24.6 352.75-25.48 355.4-26.35 358.4-26L358.4-26Q361.3-25.65 363.35-24.43 365.4-23.2 366.85-21.3L366.85-21.3Q368.1-19.7 368.38-18.9 368.65-18.1 368.88-17.4 369.1-16.7 369.25-16.2 369.4-15.7 369.53-15.18 369.65-14.65 369.7-13.95L369.7-13.95Q369.75-13 369.35-12.2 368.95-11.4 368.15-10.95L368.15-10.95Q367.5-10.7 366.75-10.7L366.75-10.7 358.2-10.55Q349.2-10.5 349.2-10.35L349.2-10.35 349.05-10.35Q349.7-7.8 351.78-6.35 353.85-4.9 357.45-4.65L357.45-4.65Q359.4-4.55 360.7-4.85L360.7-4.85Q362.15-5.25 362.8-5.58 363.45-5.9 364.4-6.45L364.4-6.45Q365.35-6.8 366.3-6.35 367.25-5.9 367.6-4.95 367.95-4 367.53-3.1 367.1-2.2 366.2-1.7L366.2-1.7Q365.4-1.25 364.55-0.93 363.7-0.6 362.05-0.15 360.4 0.3 357.15 0.25L357.15 0.25ZM349.15-15.25L349.15-15.25Q352.05-15.4 364.2-15.55L364.2-15.55Q363.75-17.05 362.75-18.4L362.75-18.4Q360.75-20.7 357.8-21.05L357.8-21.05Q354.7-21.45 352.35-19.73 350-18 349.15-15.25L349.15-15.25ZM394.99 0L394.99 0Q393.94-0.05 393.24-0.83 392.54-1.6 392.59-2.6L392.59-2.6Q392.69-4.85 392.74-6.2L392.74-6.2Q392.79-7.95 392.84-9.98 392.89-12 392.91-13.4 392.94-14.8 392.91-16.78 392.89-18.75 392.89-19.83 392.89-20.9 392.86-23.63 392.84-26.35 392.81-27.08 392.79-27.8 392.74-30.28 392.69-32.75 392.69-33.25L392.69-33.25Q392.69-34.3 393.39-35.05 394.09-35.8 395.14-35.8 396.19-35.8 396.94-35.1 397.69-34.4 397.69-33.35L397.69-33.35Q397.84-26.65 397.84-24.95L397.84-24.95Q398.59-25.45 399.39-25.75L399.39-25.75Q402.79-27 405.54-26.43 408.29-25.85 410.49-23.8L410.49-23.8Q412.39-22 413.61-19.4 414.84-16.8 415.19-14.7L415.19-14.7Q416.04-8.35 412.99-4.05L412.99-4.05Q411.24-1.55 408.39-0.5L408.39-0.5Q405.59 0.6 401.94 0L401.94 0Q399.49-0.4 397.44-1.6L397.44-1.6Q397.14-0.85 396.46-0.4 395.79 0.05 394.99 0L394.99 0ZM402.74-4.9L402.74-4.9Q406.99-4.25 408.94-6.95L408.94-6.95Q410.84-9.65 410.24-14.05L410.24-14.05Q409.64-17.75 407.09-20.15L407.09-20.15Q404.59-22.45 401.19-21.15L401.19-21.15Q400.84-21 400.56-20.83 400.29-20.65 399.99-20.3L399.99-20.3 399.39-19.8Q399.19-19.55 398.69-18.98 398.19-18.4 397.89-18.1L397.89-18.1Q397.94-12.9 397.79-7.95L397.79-7.95 397.84-7.9Q399.54-5.45 402.74-4.9L402.74-4.9ZM474.91 0.1L474.91 0.1Q474.16 0.15 473.51-0.25L473.51-0.25Q472.71-0.5 472.24-1.18 471.76-1.85 471.76-2.7L471.76-2.7Q471.76-4.3 472.01-18.35L472.01-18.35Q472.06-20.65 471.86-25.7L471.86-25.7Q471.66-30.65 471.81-33.4L471.81-33.4Q471.86-34.45 472.64-35.15 473.41-35.85 474.41-35.8L474.41-35.8 474.61-35.8Q475.06-36.05 475.56-36.1L475.56-36.1Q477.86-36.3 479.21-36.38 480.56-36.45 483.01-36.45 485.46-36.45 487.21-36.13 488.96-35.8 491.09-35.05 493.21-34.3 494.86-33.1L494.86-33.1Q498.36-30.55 499.99-26.58 501.61-22.6 501.46-18.2L501.46-18.2Q501.31-13.95 499.56-10L499.56-10Q497.76-6.1 494.61-3.6L494.61-3.6Q490.86-0.6 484.46-0.1L484.46-0.1Q482.56 0.05 479.46 0.05L479.46 0.05Q476.11 0.05 474.91 0.1L474.91 0.1ZM476.81-4.95L479.46-4.95Q482.41-4.95 484.06-5.1L484.06-5.1Q488.61-5.45 491.21-7.5L491.21-7.5Q493.41-9.25 494.74-12.18 496.06-15.1 496.16-18.4L496.16-18.4Q496.31-21.7 495.16-24.5L495.16-24.5Q493.96-27.35 491.66-29L491.66-29Q489.81-30.35 487.26-30.95L487.26-30.95Q484.66-31.55 482.21-31.48 479.76-31.4 476.76-31.15L476.76-31.15Q476.71-29.7 476.86-25.9L476.86-25.9Q477.06-20.45 477.01-18.25L477.01-18.25Q477.01-16.75 476.96-14.08 476.91-11.4 476.86-9.15 476.81-6.9 476.81-4.95L476.81-4.95ZM536.75 0.25L536.75 0.25Q533.05 0 530.3-1.25 527.55-2.5 526.1-4.4 524.65-6.3 524-7.9 523.35-9.5 523.2-11.08 523.05-12.65 523.35-15.15L523.35-15.15Q523.7-17.25 524.83-19.3 525.95-21.35 527.83-22.98 529.7-24.6 532.35-25.48 535-26.35 538-26L538-26Q540.9-25.65 542.95-24.43 545-23.2 546.45-21.3L546.45-21.3Q547.7-19.7 547.98-18.9 548.25-18.1 548.48-17.4 548.7-16.7 548.85-16.2 549-15.7 549.13-15.18 549.25-14.65 549.3-13.95L549.3-13.95Q549.35-13 548.95-12.2 548.55-11.4 547.75-10.95L547.75-10.95Q547.1-10.7 546.35-10.7L546.35-10.7 537.8-10.55Q528.8-10.5 528.8-10.35L528.8-10.35 528.65-10.35Q529.3-7.8 531.38-6.35 533.45-4.9 537.05-4.65L537.05-4.65Q539-4.55 540.3-4.85L540.3-4.85Q541.75-5.25 542.4-5.58 543.05-5.9 544-6.45L544-6.45Q544.95-6.8 545.9-6.35 546.85-5.9 547.2-4.95 547.55-4 547.13-3.1 546.7-2.2 545.8-1.7L545.8-1.7Q545-1.25 544.15-0.93 543.3-0.6 541.65-0.15 540 0.3 536.75 0.25L536.75 0.25ZM528.75-15.25L528.75-15.25Q531.65-15.4 543.8-15.55L543.8-15.55Q543.35-17.05 542.35-18.4L542.35-18.4Q540.35-20.7 537.4-21.05L537.4-21.05Q534.3-21.45 531.95-19.73 529.6-18 528.75-15.25L528.75-15.25ZM580.04 0L580.04 0Q579.09 0.05 578.34-0.5L578.34-0.5Q578.09-0.7 577.89-0.95L577.89-0.95Q577.69-1.15 577.54-1.4L577.54-1.4 577.14-2.1Q576.84-2.7 576.39-3.75L576.39-3.75 575.39-6Q574.59-7.95 571.92-14.93 569.24-21.9 568.74-23.15L568.74-23.15Q568.39-24.1 568.82-25.05 569.24-26 570.19-26.38 571.14-26.75 572.09-26.33 573.04-25.9 573.44-24.95L573.44-24.95Q573.84-23.85 576.57-16.75 579.29-9.65 579.99-7.9L579.99-7.9 580.19-7.45Q580.39-7.8 580.54-8.18 580.69-8.55 580.79-8.78 580.89-9 580.94-9.2L580.94-9.2 581.04-9.4Q581.39-10.2 583.72-16.2 586.04-22.2 587.69-25.2L587.69-25.2Q588.19-26.1 589.19-26.4 590.19-26.7 591.09-26.2 591.99-25.7 592.29-24.7 592.59-23.7 592.09-22.8L592.09-22.8Q590.49-19.9 588.42-14.5 586.34-9.1 585.64-7.4L585.64-7.4 584.24-4.35Q583.54-2.95 582.94-2.05L582.94-2.05Q582.49-1.4 582.04-1L582.04-1Q581.14-0.1 580.04 0L580.04 0ZM625.88 0.25L625.88 0.25Q622.18 0 619.43-1.25 616.68-2.5 615.23-4.4 613.78-6.3 613.13-7.9 612.48-9.5 612.33-11.08 612.18-12.65 612.48-15.15L612.48-15.15Q612.83-17.25 613.95-19.3 615.08-21.35 616.95-22.98 618.83-24.6 621.48-25.48 624.13-26.35 627.13-26L627.13-26Q630.03-25.65 632.08-24.43 634.13-23.2 635.58-21.3L635.58-21.3Q636.83-19.7 637.1-18.9 637.38-18.1 637.6-17.4 637.83-16.7 637.98-16.2 638.13-15.7 638.25-15.18 638.38-14.65 638.43-13.95L638.43-13.95Q638.48-13 638.08-12.2 637.68-11.4 636.88-10.95L636.88-10.95Q636.23-10.7 635.48-10.7L635.48-10.7 626.93-10.55Q617.93-10.5 617.93-10.35L617.93-10.35 617.78-10.35Q618.43-7.8 620.5-6.35 622.58-4.9 626.18-4.65L626.18-4.65Q628.13-4.55 629.43-4.85L629.43-4.85Q630.88-5.25 631.53-5.58 632.18-5.9 633.13-6.45L633.13-6.45Q634.08-6.8 635.03-6.35 635.98-5.9 636.33-4.95 636.68-4 636.25-3.1 635.83-2.2 634.93-1.7L634.93-1.7Q634.13-1.25 633.28-0.93 632.43-0.6 630.78-0.15 629.13 0.3 625.88 0.25L625.88 0.25ZM617.88-15.25L617.88-15.25Q620.78-15.4 632.93-15.55L632.93-15.55Q632.48-17.05 631.48-18.4L631.48-18.4Q629.48-20.7 626.53-21.05L626.53-21.05Q623.43-21.45 621.08-19.73 618.73-18 617.88-15.25L617.88-15.25ZM666.07-2.4L666.07-2.4Q666.02-1.35 665.27-0.65 664.52 0.05 663.47 0 662.42-0.05 661.72-0.8 661.02-1.55 661.07-2.6L661.07-2.6Q661.27-9.25 661.27-12.7 661.27-16.15 661.17-23 661.07-29.85 661.07-33.3L661.07-33.3Q661.07-34.35 661.79-35.08 662.52-35.8 663.57-35.8 664.62-35.8 665.34-35.08 666.07-34.35 666.07-33.3L666.07-33.3Q666.07-29.85 666.17-23.5 666.27-17.15 666.24-11.98 666.22-6.8 666.07-2.4L666.07-2.4ZM703.85-0.35L703.85-0.35Q697.25 1.25 693.3-3L693.3-3Q690.15-6.25 689.4-11.35L689.4-11.35Q688.85-15.35 690.35-18.95L690.35-18.95Q692.15-23.55 696.05-25.75L696.05-25.75Q696.85-26.2 698.05-26.4L698.05-26.4Q698.1-26.4 698.75-26.45L698.75-26.45Q699-26.5 699.15-26.55L699.15-26.55Q699.9-26.7 700.65-26.4L700.65-26.4Q700.85-26.4 701.6-26.38 702.35-26.35 702.6-26.33 702.85-26.3 703.48-26.23 704.1-26.15 704.5-26.05L704.5-26.05 705.45-25.7Q706.05-25.5 706.6-25.2 707.15-24.9 707.8-24.5L707.8-24.5Q711.05-22.3 712.3-18.32 713.55-14.35 712.95-11.9L712.95-11.9Q712.5-9.2 711.35-6.88 710.2-4.55 708.18-2.75 706.15-0.95 703.85-0.35L703.85-0.35ZM702.3-5.55L702.3-5.55Q704.45-5.85 705.98-7.78 707.5-9.7 707.98-11.85 708.45-14 707.63-16.57 706.8-19.15 705-20.3L705-20.3Q704.45-20.7 704.1-20.88 703.75-21.05 703.28-21.18 702.8-21.3 702.53-21.3 702.25-21.3 701.35-21.35 700.45-21.4 699.75-21.45L699.75-21.45Q699.6-21.45 699.4-21.5L699.4-21.5Q698.85-21.45 698.8-21.45L698.8-21.45 698.45-21.35Q696.25-20.15 695.08-17.53 693.9-14.9 694.4-12.1L694.4-12.1Q694.95-8.7 696.85-6.95L696.85-6.95Q698.9-5.05 702.3-5.55L702.3-5.55ZM741.79 7.55L741.79 7.55Q741.79 8.6 741.04 9.3 740.29 10 739.24 10 738.19 10 737.49 9.25 736.79 8.5 736.79 7.45L736.79 7.45Q736.99-2.4 736.99-24L736.99-24Q736.99-25.05 737.72-25.78 738.44-26.5 739.49-26.5L739.49-26.5Q740.24-26.5 740.87-25.83 741.49-25.15 741.79-24.15L741.79-24.15 742.49-24.6Q745.49-26.4 748.44-26.55 751.39-26.7 753.74-25.25L753.74-25.25Q755.94-24 757.47-21.75 758.99-19.5 759.69-16.85L759.69-16.85Q760.24-14.95 760.29-12.8 760.34-10.65 759.74-8.8 759.14-6.95 757.99-5.15 756.84-3.35 754.77-2 752.69-0.65 749.99-0.15L749.99-0.15Q745.34 0.7 741.94-1.75L741.94-1.75Q741.89 2.9 741.79 7.55L741.79 7.55ZM749.09-5.05L749.09-5.05Q752.89-5.75 754.42-8.68 755.94-11.6 754.89-15.55L754.89-15.55Q753.84-19.45 751.24-20.9L751.24-20.9Q748.59-22.45 745.09-20.3L745.09-20.3Q743.49-19.35 743.24-19.05L743.24-19.05Q743.09-18.9 742.99-18.78 742.89-18.65 742.64-18.2L742.64-18.2 741.99-17.3 741.99-9.1Q742.24-8.85 742.39-8.55L742.39-8.55Q743.79-6.35 745.34-5.5 746.89-4.65 749.09-5.05L749.09-5.05ZM796.28 0.25L796.28 0.25Q792.58 0 789.83-1.25 787.08-2.5 785.63-4.4 784.18-6.3 783.53-7.9 782.88-9.5 782.73-11.08 782.58-12.65 782.88-15.15L782.88-15.15Q783.23-17.25 784.35-19.3 785.48-21.35 787.35-22.98 789.23-24.6 791.88-25.48 794.53-26.35 797.53-26L797.53-26Q800.43-25.65 802.48-24.43 804.53-23.2 805.98-21.3L805.98-21.3Q807.23-19.7 807.5-18.9 807.78-18.1 808-17.4 808.23-16.7 808.38-16.2 808.53-15.7 808.65-15.18 808.78-14.65 808.83-13.95L808.83-13.95Q808.88-13 808.48-12.2 808.08-11.4 807.28-10.95L807.28-10.95Q806.63-10.7 805.88-10.7L805.88-10.7 797.33-10.55Q788.33-10.5 788.33-10.35L788.33-10.35 788.18-10.35Q788.83-7.8 790.9-6.35 792.98-4.9 796.58-4.65L796.58-4.65Q798.53-4.55 799.83-4.85L799.83-4.85Q801.28-5.25 801.93-5.58 802.58-5.9 803.53-6.45L803.53-6.45Q804.48-6.8 805.43-6.35 806.38-5.9 806.73-4.95 807.08-4 806.65-3.1 806.23-2.2 805.33-1.7L805.33-1.7Q804.53-1.25 803.68-0.93 802.83-0.6 801.18-0.15 799.53 0.3 796.28 0.25L796.28 0.25ZM788.28-15.25L788.28-15.25Q791.18-15.4 803.33-15.55L803.33-15.55Q802.88-17.05 801.88-18.4L801.88-18.4Q799.88-20.7 796.93-21.05L796.93-21.05Q793.83-21.45 791.48-19.73 789.13-18 788.28-15.25L788.28-15.25ZM834.37 0L834.37 0Q833.37 0 832.62-0.68 831.87-1.35 831.87-2.5L831.87-2.5 831.77-12.7Q831.72-16.15 831.72-21.3L831.72-21.3 831.72-24.25Q831.72-25.4 832.42-26.05 833.12-26.7 834.12-26.7L834.12-26.7Q835.17-26.7 835.94-26.03 836.72-25.35 836.72-24.15L836.72-24.15 836.72-22.65Q837.27-23.85 838.77-24.7L838.77-24.7Q840.82-25.95 843.27-25.95L843.27-25.95Q845.12-25.95 846.12-25.35 847.12-24.75 847.12-23.2L847.12-23.2Q847.12-22.2 846.52-21.53 845.92-20.85 844.77-20.85L844.77-20.85Q840.57-20.85 838.97-19.7L838.97-19.7Q838.07-19.1 837.39-18.25 836.72-17.4 836.72-16.6L836.72-16.6 836.82-10.35 836.87-2.5Q836.87-1.35 836.12-0.68 835.37 0 834.37 0L834.37 0Z" opacity="1" transform="matrix(1,0,0,1,0,0)" fill="#97978d" class="slogan-text-1" data-fill-palette-color="secondary" id="text-1"></path></svg></g></svg></g></svg></g></svg></g><g></g></svg></g><defs></defs></svg><rect width="395.52" height="75.34658149068208" fill="none" stroke="none" visibility="hidden"></rect></g></svg></g></svg>